<svg width="14" height="18" viewBox="0 0 14 18" fill="none" xmlns="http://www.w3.org/2000/svg">
<path fill-rule="evenodd" clip-rule="evenodd" d="M3.84992 1.3501C4.28751 0.91252 4.881 0.666687 5.49984 0.666687H9.01359C9.62325 0.666763 10.2088 0.905454 10.6447 1.33169L13.1308 3.76309C13.3531 3.98037 13.5298 4.23988 13.6504 4.52637C13.771 4.81287 13.8331 5.12057 13.8332 5.43142V12C13.8332 12.6189 13.5873 13.2124 13.1498 13.6499C12.7122 14.0875 12.1187 14.3334 11.4998 14.3334H5.49984C4.881 14.3334 4.28751 14.0875 3.84992 13.6499C3.41234 13.2124 3.1665 12.6189 3.1665 12V3.00002C3.1665 2.38118 3.41234 1.78769 3.84992 1.3501ZM5.49984 2.33335C5.32303 2.33335 5.15346 2.40359 5.02843 2.52862C4.90341 2.65364 4.83317 2.82321 4.83317 3.00002V12C4.83317 12.1768 4.90341 12.3464 5.02843 12.4714C5.15346 12.5964 5.32303 12.6667 5.49984 12.6667H11.4998C11.6766 12.6667 11.8462 12.5964 11.9712 12.4714C12.0963 12.3464 12.1665 12.1768 12.1665 12V5.43162C12.1665 5.43159 12.1665 5.43166 12.1665 5.43162C12.1665 5.34284 12.1487 5.25486 12.1143 5.17304C12.0798 5.09118 12.0293 5.01703 11.9658 4.95495L9.47948 2.52335C9.35496 2.4016 9.18774 2.3334 9.01359 2.33335C9.01355 2.33335 9.01362 2.33335 9.01359 2.33335H5.49984Z" fill="#90939E"/>
<path fill-rule="evenodd" clip-rule="evenodd" d="M2.49984 6.08335C2.32303 6.08335 2.15346 6.15359 2.02843 6.27862C1.90341 6.40364 1.83317 6.57321 1.83317 6.75002V15C1.83317 15.1768 1.90341 15.3464 2.02843 15.4714C2.15346 15.5964 2.32303 15.6667 2.49984 15.6667H8.49984C8.67665 15.6667 8.84622 15.5964 8.97124 15.4714C9.09626 15.3464 9.1665 15.1768 9.1665 15V13.5C9.1665 13.0398 9.5396 12.6667 9.99984 12.6667C10.4601 12.6667 10.8332 13.0398 10.8332 13.5V15C10.8332 15.6189 10.5873 16.2124 10.1498 16.6499C9.71217 17.0875 9.11868 17.3334 8.49984 17.3334H2.49984C1.881 17.3334 1.28751 17.0875 0.849921 16.6499C0.412336 16.2124 0.166504 15.6189 0.166504 15V6.75002C0.166504 6.13118 0.412336 5.53769 0.849921 5.1001C1.28751 4.66252 1.881 4.41669 2.49984 4.41669H3.99984C4.46007 4.41669 4.83317 4.78978 4.83317 5.25002C4.83317 5.71026 4.46007 6.08335 3.99984 6.08335H2.49984Z" fill="#90939E"/>
</svg>
