<svg width="17" height="12" viewBox="0 0 17 12" fill="none" xmlns="http://www.w3.org/2000/svg">
<path d="M6.98759 11.275C7.18759 11.075 7.28359 10.8333 7.27559 10.55C7.26759 10.2667 7.16326 10.025 6.96259 9.82499L4.13759 6.99999H15.2876C15.5709 6.99999 15.8086 6.90399 16.0006 6.71199C16.1926 6.51999 16.2883 6.28265 16.2876 5.99999C16.2876 5.71665 16.1916 5.47899 15.9996 5.28699C15.8076 5.09499 15.5703 4.99932 15.2876 4.99999H4.13759L6.98759 2.14999C7.18759 1.94999 7.28759 1.71232 7.28759 1.43699C7.28759 1.16165 7.18759 0.924321 6.98759 0.724988C6.78759 0.524988 6.54993 0.424988 6.27459 0.424988C5.99926 0.424988 5.76193 0.524988 5.56259 0.724988L0.987595 5.29999C0.887594 5.39999 0.816593 5.50832 0.774593 5.62499C0.732594 5.74165 0.711926 5.86665 0.712593 5.99999C0.712593 6.13332 0.733595 6.25832 0.775595 6.37499C0.817595 6.49165 0.888261 6.59999 0.987595 6.69999L5.58759 11.3C5.77093 11.4833 5.99993 11.575 6.27459 11.575C6.54926 11.575 6.78693 11.475 6.98759 11.275Z" fill="white"/>
</svg>
