<svg width="34" height="30" viewBox="0 0 34 30" fill="none" xmlns="http://www.w3.org/2000/svg">
<path d="M31.2802 5.45455H4.08024C3.71955 5.45455 3.37363 5.31088 3.11858 5.05515C2.86353 4.79941 2.72024 4.45257 2.72024 4.09091C2.72024 3.72925 2.86353 3.3824 3.11858 3.12667C3.37363 2.87094 3.71955 2.72727 4.08024 2.72727H27.2002C27.5609 2.72727 27.9069 2.5836 28.1619 2.32787C28.417 2.07214 28.5602 1.7253 28.5602 1.36364C28.5602 1.00198 28.417 0.655132 28.1619 0.3994C27.9069 0.143669 27.5609 0 27.2002 0H4.08024C2.99816 0 1.9604 0.431005 1.19525 1.1982C0.4301 1.96539 0.000244141 3.00593 0.000244141 4.09091V25.9091C0.000244141 26.9941 0.4301 28.0346 1.19525 28.8018C1.9604 29.569 2.99816 30 4.08024 30H31.2802C32.0016 30 32.6935 29.7127 33.2036 29.2012C33.7137 28.6897 34.0002 27.996 34.0002 27.2727V8.18182C34.0002 7.4585 33.7137 6.76481 33.2036 6.25335C32.6935 5.74188 32.0016 5.45455 31.2802 5.45455ZM25.1602 19.0909C24.7568 19.0909 24.3624 18.9709 24.0269 18.7462C23.6914 18.5214 23.4299 18.202 23.2755 17.8282C23.1211 17.4545 23.0807 17.0432 23.1594 16.6464C23.2382 16.2496 23.4324 15.8852 23.7177 15.5991C24.003 15.313 24.3665 15.1182 24.7623 15.0393C25.158 14.9604 25.5682 15.0009 25.9409 15.1557C26.3137 15.3105 26.6323 15.5727 26.8564 15.9091C27.0806 16.2454 27.2002 16.6409 27.2002 17.0455C27.2002 17.5879 26.9853 18.1082 26.6027 18.4918C26.2202 18.8754 25.7013 19.0909 25.1602 19.0909Z" fill="#202127"/>
</svg>
