<svg width="28" height="28" viewBox="0 0 28 28" fill="none" xmlns="http://www.w3.org/2000/svg">
<path d="M14 0C11.1088 0 8.75 2.35875 8.75 5.25C8.75 6.98375 9.6025 8.52563 10.905 9.48312L6.65 17.6969C6.20312 17.5725 5.73562 17.5 5.25 17.5C2.35875 17.5 0 19.8587 0 22.75C0 25.6413 2.35875 28 5.25 28C7.90438 28 10.1131 26.0131 10.4563 23.45H17.5438C17.8875 26.0131 20.0956 28 22.75 28C25.6413 28 28 25.6413 28 22.75C28 19.8587 25.6413 17.5 22.75 17.5C22.2644 17.5 21.7969 17.5725 21.35 17.6969L17.095 9.48312C18.3975 8.52625 19.25 6.98375 19.25 5.25C19.25 2.35875 16.8913 0 14 0ZM12.1406 10.1606C12.7194 10.3813 13.3456 10.5 14 10.5C14.6544 10.5 15.2806 10.3819 15.8594 10.1606L20.0594 18.2544C18.7225 19.0594 17.7725 20.4394 17.555 22.05H10.4456C10.2281 20.4394 9.27812 19.0594 7.94125 18.2544L12.1412 10.1606H12.1406Z" fill="#202127"/>
</svg>
