<svg width="16" height="12" viewBox="0 0 16 12" fill="none" xmlns="http://www.w3.org/2000/svg">
<path d="M9.51241 11.275C9.31241 11.075 9.21641 10.8333 9.22441 10.55C9.23241 10.2667 9.33674 10.025 9.53741 9.82499L12.3624 6.99999H1.21241C0.929072 6.99999 0.691406 6.90399 0.499406 6.71199C0.307406 6.51999 0.211739 6.28265 0.212406 5.99999C0.212406 5.71665 0.308406 5.47899 0.500406 5.28699C0.692406 5.09499 0.929739 4.99932 1.21241 4.99999H12.3624L9.51241 2.14999C9.31241 1.94999 9.21241 1.71232 9.21241 1.43699C9.21241 1.16165 9.31241 0.924321 9.51241 0.724988C9.71241 0.524988 9.95007 0.424988 10.2254 0.424988C10.5007 0.424988 10.7381 0.524988 10.9374 0.724988L15.5124 5.29999C15.6124 5.39999 15.6834 5.50832 15.7254 5.62499C15.7674 5.74165 15.7881 5.86665 15.7874 5.99999C15.7874 6.13332 15.7664 6.25832 15.7244 6.37499C15.6824 6.49165 15.6117 6.59999 15.5124 6.69999L10.9124 11.3C10.7291 11.4833 10.5001 11.575 10.2254 11.575C9.95074 11.575 9.71307 11.475 9.51241 11.275Z" fill="white"/>
</svg>
