<svg width="22" height="22" viewBox="0 0 22 22" fill="none" xmlns="http://www.w3.org/2000/svg">
<path d="M9.89527 7.04894L9.50957 6.90191L9.16052 6.64531C8.37921 6.07095 7.875 5.15183 7.875 4.125C7.875 2.40559 9.28059 1 11 1C12.7194 1 14.125 2.40559 14.125 4.125C14.125 5.15201 13.6207 6.07143 12.8397 6.64513L12.4911 6.90122L12.1039 7.04928C11.7638 7.17927 11.3928 7.25 11 7.25C10.6078 7.25 10.2365 7.179 9.89527 7.04894ZM16.2768 15.1994L16.6413 14.9799L17.0431 14.8681C17.317 14.7919 17.5939 14.75 17.875 14.75C19.5944 14.75 21 16.1556 21 17.875C21 19.5944 19.5944 21 17.875 21C16.2971 21 14.9799 19.8163 14.7755 18.2921L14.7238 17.9064L14.7842 17.4588C14.9131 16.5041 15.4772 15.6809 16.2768 15.1994ZM7.21627 17.4588L7.27642 17.9042L7.22447 18.2923C7.02048 19.8161 5.70307 21 4.125 21C2.40559 21 1 19.5944 1 17.875C1 16.1556 2.40559 14.75 4.125 14.75C4.40609 14.75 4.68303 14.7919 4.95687 14.8681L5.3596 14.9802L5.7237 15.1994C6.52326 15.6809 7.08734 16.5041 7.21627 17.4588Z" stroke="#8D8E93" stroke-width="2"/>
</svg>
