<svg width="20" height="18" viewBox="0 0 20 18" fill="none" xmlns="http://www.w3.org/2000/svg">
<g clip-path="url(#clip0_4637_451)">
<path d="M0.687775 0.5H14.9788C15.1612 0.5 15.3361 0.571032 15.4653 0.697918C15.5945 0.824804 15.6668 0.996616 15.6668 1.17571V5.69413H19.1776C19.3183 5.69413 19.4326 5.80645 19.4326 5.94456V12.264C19.4326 12.4021 19.3186 12.5144 19.1776 12.5144H18.0319C17.9642 12.5144 17.8993 12.488 17.8517 12.4409C17.8038 12.3939 17.7772 12.3305 17.7772 12.264V7.7917C17.7772 7.65358 17.6632 7.54127 17.5222 7.54127H15.6693V11.8399C15.6693 12.0193 15.5961 12.1911 15.4669 12.3177C15.3377 12.4443 15.1621 12.515 14.9794 12.5141H0.688393C0.506039 12.5141 0.3311 12.4431 0.201908 12.3165C0.0727139 12.1899 0.000389099 12.0181 0.000389099 11.839V1.17571C0.000389099 0.996616 0.0727139 0.824804 0.201908 0.697918C0.330791 0.571032 0.506039 0.5 0.688393 0.5H0.687775Z" fill="white"/>
<path d="M17.2233 16.0202C17.2233 16.8373 17.8445 17.4997 18.6113 17.4997C19.3781 17.4997 20 16.8373 20 16.0202C20 15.2804 18.8641 13.715 18.6459 13.4248C18.6382 13.4126 18.6249 13.4053 18.6104 13.4053C18.5959 13.4053 18.5826 13.4126 18.5749 13.4245C18.3604 13.7147 17.2233 15.2798 17.2233 16.0199V16.0202Z" fill="white"/>
</g>
<defs>
<clipPath id="clip0_4637_451">
<rect width="20" height="17" fill="white" transform="matrix(-1 0 0 1 20 0.5)"/>
</clipPath>
</defs>
</svg>
