<svg width="20" height="20" viewBox="0 0 20 20" fill="none" xmlns="http://www.w3.org/2000/svg">
<path d="M6.28999 0.5C5.25188 0.5 4.35226 1.111 3.90771 2H16.5153C17.1867 2 17.7326 2.5605 17.7326 3.25V16.1963C18.5983 15.7403 19.1933 14.816 19.1933 13.75V3.25C19.1933 1.734 17.9916 0.5 16.5153 0.5H6.28999ZM3.36848 3.5C1.8981 3.5 0.69043 4.74011 0.69043 6.25V16.75C0.69043 18.2599 1.8981 19.5 3.36848 19.5H13.5938C15.0642 19.5 16.2718 18.2599 16.2718 16.75V6.25C16.2718 4.74011 15.0642 3.5 13.5938 3.5H3.36848ZM3.36848 5H13.5938C14.2746 5 14.8111 5.55089 14.8111 6.25V16.75C14.8111 17.4491 14.2746 18 13.5938 18H3.36848C2.68766 18 2.15119 17.4491 2.15119 16.75V6.25C2.15119 5.55089 2.68766 5 3.36848 5Z" fill="#46961A"/>
</svg>
