<svg width="72" height="72" viewBox="0 0 72 72" fill="none" xmlns="http://www.w3.org/2000/svg">
<path d="M36.0001 0.166687C16.2552 0.166687 0.166748 16.2551 0.166748 36C0.166748 55.7449 16.2552 71.8334 36.0001 71.8334C55.745 71.8334 71.8334 55.7449 71.8334 36C71.8334 16.2551 55.745 0.166687 36.0001 0.166687ZM48.7977 30.5153L34.1719 45.1412C33.4406 45.5068 33.0749 45.8725 32.3436 45.8725C31.6123 45.8725 30.881 45.5068 30.5154 45.1412L23.2025 37.8283C22.1055 36.7313 22.1055 34.9031 23.2025 33.8061C24.2994 32.7092 26.1276 32.7092 27.2246 33.8061L32.7093 39.2908L45.5069 26.4932C46.6038 25.3963 48.4321 25.3963 49.529 26.4932C49.8946 27.9558 49.8946 29.4184 48.7977 30.5153Z" fill="#00B31D"/>
</svg>
