<svg width="27" height="29" viewBox="0 0 27 29" fill="none" xmlns="http://www.w3.org/2000/svg">
<path fill-rule="evenodd" clip-rule="evenodd" d="M3.06463 0.245117C1.74262 0.245117 0.700022 1.41153 0.800106 2.77857L1.80029 16.4399L9.60276 16.0496L17.5411 7.71262L13.6412 15.8475L20.0217 15.5283L19.1023 2.42929C19.0159 1.19817 18.0275 0.245117 16.8372 0.245117H3.06463Z" fill="#8D8E93"/>
<path d="M8.71926 4.74121C7.92545 4.74121 7.1972 5.19802 6.82865 5.92714L1.98596 15.5077C1.40948 16.6481 2.20714 18.0157 3.44883 18.0157H7.73036L17.5409 7.71254L12.6016 18.0157H19.1263C19.7405 18.0157 20.304 17.6623 20.5891 17.0981L25.5153 7.35243C26.1155 6.16504 25.285 4.74121 23.9923 4.74121H8.71926Z" fill="#8D8E93"/>
<path d="M17.5854 17.8974L7.69252 28.2451L12.6557 17.8974H17.5854Z" fill="#8D8E93"/>
</svg>
