<svg width="46" height="18" viewBox="0 0 46 18" fill="none" xmlns="http://www.w3.org/2000/svg">
<path d="M27.732 9.60199L30.9273 5.19892V3.90655H25.2752V5.72488H28.3047L25.1245 10.128V11.4203H31.078V9.60199H27.732Z" fill="#202127"/>
<path d="M33.8387 3.1702C34.3964 3.1702 34.8485 2.71937 34.8485 2.16335C34.8485 1.60733 34.3964 1.14148 33.8387 1.14148C33.281 1.14148 32.8138 1.60733 32.8138 2.16335C32.8138 2.71937 33.281 3.1702 33.8387 3.1702ZM36.7024 3.1702C37.2601 3.1702 37.7122 2.71937 37.7122 2.16335C37.7122 1.60733 37.2601 1.14148 36.7024 1.14148C36.1447 1.14148 35.6775 1.60733 35.6775 2.16335C35.6775 2.71937 36.1447 3.1702 36.7024 3.1702ZM36.8531 3.90655V7.96399C36.8531 9.27139 36.1447 9.82741 35.1952 9.82741C34.321 9.82741 33.7031 9.30144 33.7031 8.27957V3.90655H31.7588V8.52001C31.7588 10.5187 33.0097 11.6307 34.6074 11.6307C35.6172 11.6307 36.401 11.255 36.8531 10.5788V11.4203H38.7974V3.90655H36.8531Z" fill="#202127"/>
<path d="M41.6879 6.04046C41.6879 5.63472 42.0798 5.42433 42.5621 5.42433C43.1198 5.42433 43.5418 5.70986 43.7679 6.19074L45.4258 5.28908C44.838 4.25218 43.7829 3.69616 42.5621 3.69616C41.0097 3.69616 39.6984 4.55273 39.6984 6.08554C39.6984 8.73039 43.587 8.12929 43.587 9.2263C43.587 9.6621 43.165 9.87249 42.547 9.87249C41.7934 9.87249 41.281 9.51183 41.07 8.8957L39.3819 9.84243C39.9245 10.9996 41.0398 11.6307 42.547 11.6307C44.1597 11.6307 45.5765 10.8493 45.5765 9.2263C45.5765 6.46123 41.6879 7.1525 41.6879 6.04046Z" fill="#202127"/>
<path fill-rule="evenodd" clip-rule="evenodd" d="M11.5212 0C8.99463 0 6.87032 1.71722 6.25827 4.04493C5.97251 3.81402 5.65343 3.62399 5.30991 3.48212C4.60819 3.19231 3.83604 3.11649 3.09109 3.26423C2.34615 3.41197 1.66187 3.77664 1.1248 4.31213C0.587723 4.84762 0.22197 5.52987 0.0737919 6.27262C-0.0743867 7.01536 0.00166394 7.78524 0.292327 8.48489C0.582989 9.18454 1.07521 9.78254 1.70674 10.2033C2.33828 10.624 3.08076 10.8486 3.84029 10.8486H7.04146L13.441 4.46789L10.2412 10.8486H10.5706L10.5717 10.8495H13.441L12.6615 11.6267L13.5202 10.8465H17.4959C18.0866 10.8464 18.6641 10.6717 19.1553 10.3445C19.6465 10.0172 20.0293 9.55207 20.2553 9.00789C20.4814 8.46371 20.5405 7.86491 20.4252 7.28723C20.3099 6.70955 20.0254 6.17892 19.6077 5.76245C19.19 5.34597 18.6577 5.06236 18.0783 4.94747C17.701 4.87265 17.3147 4.87157 16.9404 4.94218C16.6957 2.17226 14.3629 0 11.5212 0Z" fill="#202127"/>
<path d="M7.04004 17.2282L15.094 9.51709L10.4003 10.5275L7.04004 17.2282Z" fill="#202127"/>
</svg>
