<svg width="12" height="12" viewBox="0 0 12 12" fill="none" xmlns="http://www.w3.org/2000/svg">
<path d="M11.8105 10.8273C11.8105 11.0078 11.7609 11.1848 11.667 11.339C11.5732 11.4932 11.4387 11.6186 11.2784 11.7015C11.1181 11.7844 10.938 11.8216 10.758 11.8091C10.5779 11.7966 10.4048 11.7347 10.2575 11.6304L3.36805 6.74582C3.24007 6.65532 3.13556 6.53557 3.06321 6.39653C2.99086 6.25749 2.95276 6.10319 2.95208 5.94645C2.95141 5.78971 2.98818 5.63508 3.05933 5.49542C3.13049 5.35577 3.23397 5.23512 3.36116 5.14353L10.2506 0.186148C10.3976 0.0800477 10.571 0.0167478 10.7516 0.00294781C10.9323 -0.0107522 11.1133 0.0256476 11.2747 0.108148C11.436 0.190648 11.5714 0.316148 11.6659 0.470748C11.7605 0.625348 11.8105 0.803047 11.8105 0.984247L11.8105 10.8273ZM0.000131607 11.3214C0.000131607 11.4519 0.0519308 11.5771 0.144231 11.6693C0.236531 11.7616 0.361731 11.8135 0.492231 11.8135C0.622731 11.8135 0.747931 11.7616 0.840131 11.6693C0.932431 11.5771 0.984331 11.4519 0.984331 11.3214L0.984331 0.495148C0.984331 0.364648 0.932431 0.239448 0.840131 0.147148C0.747931 0.0548481 0.622731 0.00304794 0.492231 0.00304794C0.361731 0.00304794 0.236531 0.0548481 0.144231 0.147148C0.0519308 0.239448 0.000131607 0.364648 0.000131607 0.495148L0.000131607 11.3214Z" fill="white"/>
</svg>
