<svg width="16" height="16" viewBox="0 0 16 16" fill="none" xmlns="http://www.w3.org/2000/svg">
<path d="M4.65714 16C4.40952 16 4.20476 15.919 4.04286 15.7571C3.88095 15.5952 3.8 15.3905 3.8 15.1429V12.2H0.857143C0.609524 12.2 0.404762 12.119 0.242857 11.9571C0.0809525 11.7952 0 11.5905 0 11.3429C0 11.0952 0.0809525 10.8905 0.242857 10.7286C0.404762 10.5667 0.609524 10.4857 0.857143 10.4857H4.65714C4.90476 10.4857 5.10952 10.5667 5.27143 10.7286C5.43333 10.8905 5.51429 11.0952 5.51429 11.3429V15.1429C5.51429 15.3905 5.43333 15.5952 5.27143 15.7571C5.10952 15.919 4.90476 16 4.65714 16ZM0.857143 5.51429C0.609524 5.51429 0.404762 5.43333 0.242857 5.27143C0.0809525 5.10952 0 4.90476 0 4.65714C0 4.40952 0.0809525 4.20476 0.242857 4.04286C0.404762 3.88095 0.609524 3.8 0.857143 3.8H3.8V0.857143C3.8 0.609524 3.88095 0.404762 4.04286 0.242857C4.20476 0.0809525 4.40952 0 4.65714 0C4.90476 0 5.10952 0.0809525 5.27143 0.242857C5.43333 0.404762 5.51429 0.609524 5.51429 0.857143V4.65714C5.51429 4.90476 5.43333 5.10952 5.27143 5.27143C5.10952 5.43333 4.90476 5.51429 4.65714 5.51429H0.857143ZM11.3429 16C11.0952 16 10.8905 15.919 10.7286 15.7571C10.5667 15.5952 10.4857 15.3905 10.4857 15.1429V11.3429C10.4857 11.0952 10.5667 10.8905 10.7286 10.7286C10.8905 10.5667 11.0952 10.4857 11.3429 10.4857H15.1429C15.3905 10.4857 15.5952 10.5667 15.7571 10.7286C15.919 10.8905 16 11.0952 16 11.3429C16 11.5905 15.919 11.7952 15.7571 11.9571C15.5952 12.119 15.3905 12.2 15.1429 12.2H12.2V15.1429C12.2 15.3905 12.119 15.5952 11.9571 15.7571C11.7952 15.919 11.5905 16 11.3429 16ZM11.3429 5.51429C11.0952 5.51429 10.8905 5.43333 10.7286 5.27143C10.5667 5.10952 10.4857 4.90476 10.4857 4.65714V0.857143C10.4857 0.609524 10.5667 0.404762 10.7286 0.242857C10.8905 0.0809525 11.0952 0 11.3429 0C11.5905 0 11.7952 0.0809525 11.9571 0.242857C12.119 0.404762 12.2 0.609524 12.2 0.857143V3.8H15.1429C15.3905 3.8 15.5952 3.88095 15.7571 4.04286C15.919 4.20476 16 4.40952 16 4.65714C16 4.90476 15.919 5.10952 15.7571 5.27143C15.5952 5.43333 15.3905 5.51429 15.1429 5.51429H11.3429Z" fill="white"/>
</svg>
