<svg width="13" height="13" viewBox="0 0 13 13" fill="none" xmlns="http://www.w3.org/2000/svg">
<path d="M0.521484 1.24154C0.521491 1.06104 0.571135 0.884022 0.664986 0.72984C0.758837 0.575658 0.893281 0.450255 1.05361 0.367346C1.21394 0.284437 1.39399 0.247215 1.57405 0.259753C1.75411 0.27229 1.92726 0.334104 2.07456 0.438433L8.96398 5.32303C9.09196 5.41353 9.19647 5.53328 9.26882 5.67232C9.34117 5.81136 9.37927 5.96566 9.37995 6.1224C9.38062 6.27914 9.34385 6.43377 9.2727 6.57343C9.20154 6.71308 9.09806 6.83373 8.97087 6.92532L2.08145 11.8827C1.93447 11.9888 1.76108 12.0521 1.58039 12.0659C1.39969 12.0796 1.2187 12.0432 1.05738 11.9607C0.896049 11.8782 0.760645 11.7527 0.666087 11.5981C0.57153 11.4435 0.52149 11.2658 0.521484 11.0846V1.24154ZM12.3319 0.747473C12.3319 0.616959 12.2801 0.491791 12.1878 0.399504C12.0955 0.307217 11.9703 0.255371 11.8398 0.255371C11.7093 0.255371 11.5841 0.307217 11.4919 0.399504C11.3996 0.491791 11.3477 0.616959 11.3477 0.747473V11.5737C11.3477 11.7042 11.3996 11.8294 11.4919 11.9217C11.5841 12.014 11.7093 12.0658 11.8398 12.0658C11.9703 12.0658 12.0955 12.014 12.1878 11.9217C12.2801 11.8294 12.3319 11.7042 12.3319 11.5737V0.747473Z" fill="white"/>
</svg>
