<svg width="15" height="15" viewBox="0 0 15 15" fill="none" xmlns="http://www.w3.org/2000/svg">
<path d="M5.0364 1.39014H2.93331C2.56146 1.39014 2.20484 1.53785 1.9419 1.80079C1.67897 2.06373 1.53125 2.42035 1.53125 2.79219V4.89528M14.1498 4.89528V2.79219C14.1498 2.42035 14.0021 2.06373 13.7391 1.80079C13.4762 1.53785 13.1196 1.39014 12.7477 1.39014H10.6446M10.6446 14.0087H12.7477C13.1196 14.0087 13.4762 13.8609 13.7391 13.598C14.0021 13.3351 14.1498 12.9785 14.1498 12.6066V10.5035M1.53125 10.5035V12.6066C1.53125 12.9785 1.67897 13.3351 1.9419 13.598C2.20484 13.8609 2.56146 14.0087 2.93331 14.0087H5.0364" stroke="white" stroke-width="1.57732" stroke-linecap="round" stroke-linejoin="round"/>
</svg>
