<svg width="120" height="120" viewBox="0 0 120 120" fill="none" xmlns="http://www.w3.org/2000/svg">
<rect width="120" height="120" rx="60" fill="url(#paint0_linear_0_1)"/>
<rect x="6" y="6" width="108" height="108" rx="54" fill="white"/>
<path d="M40 48C40 44.134 43.134 41 47 41V41C50.866 41 54 44.134 54 48V74C54 77.866 50.866 81 47 81V81C43.134 81 40 77.866 40 74V48Z" fill="url(#paint1_linear_0_1)"/>
<path d="M67 47C67 43.134 70.134 40 74 40V40C77.866 40 81 43.134 81 47V73C81 76.866 77.866 80 74 80V80C70.134 80 67 76.866 67 73V47Z" fill="url(#paint2_linear_0_1)"/>
<defs>
<linearGradient id="paint0_linear_0_1" x1="-14.6667" y1="-9.33333" x2="-29.3333" y2="90.6667" gradientUnits="userSpaceOnUse">
<stop stop-color="#00D3FF"/>
<stop offset="1" stop-color="#1A49FF"/>
</linearGradient>
<linearGradient id="paint1_linear_0_1" x1="1.29412" y1="8.6" x2="30.6021" y2="99.1098" gradientUnits="userSpaceOnUse">
<stop stop-color="#00D3FF"/>
<stop offset="1" stop-color="#1A49FF"/>
</linearGradient>
<linearGradient id="paint2_linear_0_1" x1="28.2941" y1="7.6" x2="57.6021" y2="98.1098" gradientUnits="userSpaceOnUse">
<stop stop-color="#00D3FF"/>
<stop offset="1" stop-color="#1A49FF"/>
</linearGradient>
</defs>
</svg>
