<svg width="26" height="26" viewBox="0 0 26 26" fill="none" xmlns="http://www.w3.org/2000/svg">
<path d="M25.6512 13.1613C25.6512 16.5024 24.3239 19.7067 21.9614 22.0693C19.5988 24.4318 16.3945 25.7591 13.0534 25.7591C9.71222 25.7591 6.50792 24.4318 4.14538 22.0693C1.78283 19.7067 0.455566 16.5024 0.455566 13.1613C0.455566 9.82014 1.78283 6.61583 4.14538 4.25329C6.50792 1.89074 9.71222 0.563477 13.0534 0.563477C16.3945 0.563477 19.5988 1.89074 21.9614 4.25329C24.3239 6.61583 25.6512 9.82014 25.6512 13.1613ZM11.148 8.58355C11.0302 8.49973 10.8917 8.44993 10.7475 8.4396C10.6034 8.42928 10.4592 8.45883 10.3307 8.52502C10.2022 8.59121 10.0944 8.69148 10.0191 8.81486C9.94387 8.93823 9.90401 9.07994 9.90392 9.22447V17.0981C9.90401 17.2426 9.94387 17.3843 10.0191 17.5077C10.0944 17.6311 10.2022 17.7314 10.3307 17.7975C10.4592 17.8637 10.6034 17.8933 10.7475 17.883C10.8917 17.8726 11.0302 17.8228 11.148 17.739L16.6595 13.8022C16.7616 13.7294 16.8448 13.6332 16.9022 13.5217C16.9596 13.4102 16.9895 13.2867 16.9895 13.1613C16.9895 13.0359 16.9596 12.9123 16.9022 12.8008C16.8448 12.6894 16.7616 12.5932 16.6595 12.5204L11.148 8.58355Z" fill="white"/>
</svg>
