<svg width="15" height="16" viewBox="0 0 15 16" fill="none" xmlns="http://www.w3.org/2000/svg">
<path fill-rule="evenodd" clip-rule="evenodd" d="M13.6959 4.63036L13.2597 3.8734C12.8906 3.23289 12.0728 3.01193 11.4314 3.37945V3.37945C11.1261 3.5593 10.7618 3.61033 10.4188 3.52128C10.0759 3.43222 9.7824 3.21041 9.60315 2.90474C9.48784 2.71046 9.42588 2.48916 9.42354 2.26325V2.26325C9.43394 1.90104 9.29729 1.55005 9.04472 1.29023C8.79215 1.03041 8.44516 0.883884 8.08281 0.884033H7.20396C6.84897 0.884029 6.50861 1.02549 6.25819 1.27711C6.00777 1.52873 5.86795 1.86977 5.86965 2.22476V2.22476C5.85913 2.95769 5.26194 3.54631 4.52893 3.54624C4.30301 3.54389 4.08172 3.48193 3.88743 3.36662V3.36662C3.24605 2.9991 2.42821 3.22006 2.05917 3.86057L1.59088 4.63036C1.22229 5.27007 1.44024 6.08739 2.07842 6.45863V6.45863C2.49324 6.69812 2.74879 7.14073 2.74879 7.61973C2.74879 8.09873 2.49324 8.54134 2.07842 8.78084V8.78084C1.44105 9.14957 1.22286 9.96491 1.59088 10.6027V10.6027L2.03351 11.3661C2.20642 11.6781 2.49654 11.9083 2.83966 12.0058C3.18278 12.1033 3.55062 12.0601 3.86177 11.8857V11.8857C4.16766 11.7072 4.53217 11.6583 4.87428 11.7498C5.21639 11.8414 5.50776 12.0658 5.68362 12.3732C5.79893 12.5675 5.86089 12.7888 5.86324 13.0147V13.0147C5.86324 13.7552 6.4635 14.3554 7.20396 14.3554H8.08281C8.82078 14.3554 9.42 13.7591 9.42354 13.0211V13.0211C9.42182 12.665 9.56252 12.323 9.81433 12.0712C10.0661 11.8194 10.4082 11.6787 10.7643 11.6804C10.9896 11.6864 11.21 11.7481 11.4058 11.86V11.86C12.0455 12.2286 12.8628 12.0107 13.234 11.3725V11.3725L13.6959 10.6027C13.8747 10.2958 13.9237 9.93034 13.8322 9.58719C13.7407 9.24404 13.5162 8.95152 13.2084 8.77442V8.77442C12.9005 8.59732 12.676 8.30481 12.5845 7.96165C12.493 7.6185 12.542 7.25303 12.7208 6.94616C12.8371 6.74318 13.0054 6.57488 13.2084 6.45863V6.45863C13.8427 6.08759 14.0602 5.27505 13.6959 4.63678V4.63678V4.63036Z" stroke="white" stroke-width="1.4" stroke-linecap="round" stroke-linejoin="round"/>
<circle cx="7.64682" cy="7.61972" r="1.84751" stroke="white" stroke-width="1.4" stroke-linecap="round" stroke-linejoin="round"/>
</svg>
