<svg width="14" height="14" viewBox="0 0 14 14" fill="none" xmlns="http://www.w3.org/2000/svg">
<path d="M13.6894 0.321199C13.2753 -0.0929085 12.6064 -0.0929085 12.1923 0.321199L6.99998 5.50285L1.80773 0.310581C1.39363 -0.103527 0.724685 -0.103527 0.31058 0.310581C-0.103527 0.724687 -0.103527 1.39363 0.31058 1.80774L5.50283 7.00001L0.31058 12.1923C-0.103527 12.6064 -0.103527 13.2753 0.31058 13.6894C0.724685 14.1035 1.39363 14.1035 1.80773 13.6894L6.99998 8.49715L12.1923 13.6894C12.6064 14.1035 13.2753 14.1035 13.6894 13.6894C14.1035 13.2753 14.1035 12.6064 13.6894 12.1923L8.49717 7.00001L13.6894 1.80774C14.0929 1.40425 14.0929 0.724686 13.6894 0.321199Z" fill="#202127"/>
</svg>
