<svg width="20" height="20" viewBox="0 0 20 20" fill="none" xmlns="http://www.w3.org/2000/svg">
<path d="M-0.000942884 9.97826V0.882073C-0.000942884 0.391562 0.390328 0.00039826 0.849916 0.00039826H9.98577C11.1596 -0.0306467 11.1596 1.76375 9.98577 1.7265H1.73183V9.97826C1.73183 10.4688 1.34056 10.891 0.849916 10.8599C0.359275 10.8599 -0.0319961 10.4688 -0.000942884 9.97826Z" fill="black"/>
<path d="M10.0168 18.2736H18.2708V10.0218C18.2335 9.52508 18.662 9.13391 19.1465 9.13391C19.6061 9.13391 19.9973 9.52508 19.9973 10.0156V19.149C19.9973 19.6085 19.6061 19.9997 19.1154 19.9997H10.0168C8.84301 20.0306 8.84301 18.2736 10.0168 18.2736Z" fill="black"/>
<path d="M6.97982 6.09761C7.20961 6.09761 7.40214 6.19695 7.56983 6.35839L13.6376 12.4246C14.4885 13.238 13.2464 14.5108 12.4328 13.6291L6.33391 7.56294C5.77495 7.01034 6.16623 6.06656 6.97982 6.09761Z" fill="black"/>
</svg>
