<svg width="20" height="20" viewBox="0 0 20 20" fill="none" xmlns="http://www.w3.org/2000/svg">
<path d="M7.92385e-06 0.837523C7.92385e-06 1.06007 0.0860019 1.27172 0.244412 1.43069L6.38529 7.5926H0.909734C0.679443 7.5926 0.458584 7.6844 0.295744 7.84781C0.132904 8.01122 0.0414208 8.23286 0.0414208 8.46395C0.0414208 8.69505 0.132904 8.91668 0.295744 9.08009C0.458584 9.2435 0.679443 9.33531 0.909734 9.33531H8.40705C8.43195 9.33803 8.45684 9.34076 8.47902 9.34076C8.58447 9.34076 8.6759 9.31032 8.75918 9.28262C8.79893 9.26904 8.83792 9.25327 8.87595 9.23538C8.88952 9.22993 8.90899 9.22448 8.93162 9.21858C8.99647 9.20839 9.05657 9.17824 9.1036 9.13229C9.13599 9.09491 9.158 9.04964 9.16742 9.00103C9.17014 8.99285 9.17285 8.97877 9.17602 8.97332C9.25342 8.86477 9.30592 8.73942 9.32855 8.60044V8.59226C9.33126 8.58954 9.33126 8.58954 9.33126 8.58636C9.33398 8.57546 9.33986 8.55593 9.33986 8.53367V8.53094C9.34734 8.51044 9.35102 8.48874 9.35072 8.46691V0.865228C9.34344 0.638703 9.24865 0.423901 9.08639 0.266246C8.92413 0.10859 8.70713 0.0204425 8.48128 0.0204425C8.25543 0.0204425 8.03843 0.10859 7.87617 0.266246C7.71391 0.423901 7.61912 0.638703 7.61183 0.865228V6.45169L1.4257 0.244813C1.3481 0.166938 1.25594 0.105221 1.1545 0.063209C1.05306 0.0211968 0.944342 -0.000281763 0.834602 7.9515e-06C0.724868 -0.000472924 0.616125 0.0208618 0.514651 0.0627805C0.413177 0.104699 0.320981 0.166372 0.243387 0.244238C0.165792 0.322105 0.104334 0.414623 0.0625616 0.516452C0.020789 0.618281 -0.000471277 0.727405 7.92385e-06 0.837523ZM10.6596 11.4663C10.6569 11.4804 10.6488 11.5027 10.651 11.5304V19.1289C10.651 19.3599 10.7425 19.5815 10.9053 19.7449C11.0681 19.9082 11.2889 20 11.5191 20C11.7494 20 11.9702 19.9082 12.133 19.7449C12.2958 19.5815 12.3872 19.3599 12.3872 19.1289V13.5424L18.5729 19.7497C18.7309 19.9083 18.9391 19.995 19.1635 19.995C19.3853 19.995 19.5962 19.9087 19.7546 19.7497C19.8324 19.672 19.8941 19.5796 19.9362 19.4778C19.9783 19.3761 20 19.267 20 19.1568C20 19.0466 19.9783 18.9375 19.9362 18.8358C19.8941 18.734 19.8324 18.6416 19.7546 18.5639L13.6138 12.4015H19.092C19.2061 12.4016 19.319 12.3792 19.4244 12.3354C19.5298 12.2917 19.6255 12.2275 19.7061 12.1466C19.7868 12.0657 19.8507 11.9696 19.8943 11.8639C19.9379 11.7581 19.9602 11.6448 19.9601 11.5304C19.9602 11.4159 19.9379 11.3026 19.8943 11.1969C19.8507 11.0911 19.7868 10.995 19.7061 10.9141C19.6255 10.8332 19.5298 10.7691 19.4244 10.7253C19.319 10.6816 19.2061 10.6591 19.092 10.6593H11.5915C11.4553 10.6424 11.339 10.6815 11.239 10.7151C11.2005 10.7292 11.1616 10.7428 11.1227 10.7624C11.1045 10.7693 11.0859 10.7749 11.067 10.7792C11.0021 10.7891 10.9419 10.8193 10.895 10.8654C10.8626 10.9027 10.8406 10.9478 10.8312 10.9963C10.8285 11.0049 10.8257 11.0185 10.8226 11.0244C10.7436 11.135 10.6913 11.2625 10.6701 11.3968V11.4055C10.6673 11.4082 10.6673 11.4082 10.6673 11.4109C10.6646 11.4218 10.6592 11.4414 10.6592 11.4636L10.6596 11.4663Z" fill="black"/>
</svg>
