<svg width="15" height="15" viewBox="0 0 15 15" fill="none" xmlns="http://www.w3.org/2000/svg">
    <path
        d="M13.2089 8.97363H8.20886V13.9736C8.20886 14.5236 7.75886 14.9736 7.20886 14.9736C6.65886 14.9736 6.20886 14.5236 6.20886 13.9736V8.97363H1.20886C0.658862 8.97363 0.208862 8.52363 0.208862 7.97363C0.208862 7.42363 0.658862 6.97363 1.20886 6.97363H6.20886V1.97363C6.20886 1.42363 6.65886 0.973633 7.20886 0.973633C7.75886 0.973633 8.20886 1.42363 8.20886 1.97363V6.97363H13.2089C13.7589 6.97363 14.2089 7.42363 14.2089 7.97363C14.2089 8.52363 13.7589 8.97363 13.2089 8.97363Z"
        fill="#8B8B8B" fill-opacity="0.6" />
</svg>
