<svg width="18" height="18" viewBox="0 0 18 18" fill="none" xmlns="http://www.w3.org/2000/svg">
<path d="M14.8333 0.666016H3.16663C2.50358 0.666016 1.8677 0.929408 1.39886 1.39825C0.930018 1.86709 0.666626 2.50297 0.666626 3.16602V14.8327C0.666626 15.4957 0.930018 16.1316 1.39886 16.6005C1.8677 17.0693 2.50358 17.3327 3.16663 17.3327H14.8333C14.9704 17.3308 15.107 17.3168 15.2416 17.291L15.4916 17.2327H15.55H15.5916L15.9 17.116L16.0083 17.0577C16.0916 17.0077 16.1833 16.966 16.2666 16.9077C16.3779 16.8258 16.4837 16.7367 16.5833 16.641L16.6416 16.566C16.7234 16.4831 16.7987 16.3939 16.8666 16.2993L16.9416 16.191C16.9998 16.0982 17.05 16.0007 17.0916 15.8994C17.1145 15.8594 17.134 15.8176 17.15 15.7743C17.1916 15.6743 17.2166 15.566 17.25 15.4577V15.3327C17.2972 15.1699 17.3252 15.002 17.3333 14.8327V3.16602C17.3333 2.50297 17.0699 1.86709 16.6011 1.39825C16.1322 0.929408 15.4963 0.666016 14.8333 0.666016ZM3.16663 15.666C2.94561 15.666 2.73365 15.5782 2.57737 15.4219C2.42109 15.2657 2.33329 15.0537 2.33329 14.8327V11.241L5.07496 8.49102C5.15243 8.41291 5.2446 8.35091 5.34615 8.30861C5.44769 8.2663 5.55662 8.24452 5.66663 8.24452C5.77664 8.24452 5.88556 8.2663 5.98711 8.30861C6.08866 8.35091 6.18082 8.41291 6.25829 8.49102L13.425 15.666H3.16663ZM15.6666 14.8327C15.6658 14.9354 15.6461 15.0371 15.6083 15.1327C15.5892 15.1733 15.567 15.2123 15.5416 15.2493C15.5193 15.2846 15.4943 15.3181 15.4666 15.3493L11.0083 10.891L11.7416 10.1577C11.8191 10.0796 11.9113 10.0176 12.0128 9.97527C12.1144 9.93297 12.2233 9.91118 12.3333 9.91118C12.4433 9.91118 12.5522 9.93297 12.6538 9.97527C12.7553 10.0176 12.8475 10.0796 12.925 10.1577L15.6666 12.9077V14.8327ZM15.6666 10.5493L14.1 8.99935C13.6231 8.54684 12.9907 8.29458 12.3333 8.29458C11.6759 8.29458 11.0435 8.54684 10.5666 8.99935L9.83329 9.73268L7.43329 7.33268C6.95639 6.88018 6.32404 6.62791 5.66663 6.62791C5.00921 6.62791 4.37686 6.88018 3.89996 7.33268L2.33329 8.88268V3.16602C2.33329 2.945 2.42109 2.73304 2.57737 2.57676C2.73365 2.42048 2.94561 2.33268 3.16663 2.33268H14.8333C15.0543 2.33268 15.2663 2.42048 15.4225 2.57676C15.5788 2.73304 15.6666 2.945 15.6666 3.16602V10.5493ZM10.25 3.99935C10.0027 3.99935 9.76106 4.07266 9.5555 4.21001C9.34994 4.34736 9.18972 4.54259 9.09511 4.77099C9.0005 4.9994 8.97575 5.25074 9.02398 5.49321C9.07221 5.73569 9.19126 5.95842 9.36608 6.13323C9.54089 6.30805 9.76362 6.4271 10.0061 6.47533C10.2486 6.52356 10.4999 6.49881 10.7283 6.4042C10.9567 6.30959 11.1519 6.14937 11.2893 5.94381C11.4266 5.73825 11.5 5.49658 11.5 5.24935C11.5 4.91783 11.3683 4.59989 11.1338 4.36547C10.8994 4.13105 10.5815 3.99935 10.25 3.99935Z" fill="#175BFF"/>
</svg>
