<svg width="120" height="120" viewBox="0 0 120 120" fill="none" xmlns="http://www.w3.org/2000/svg">
<rect width="120" height="120" rx="60" fill="url(#paint0_linear_0_1)"/>
<path d="M114 60C114 74.3215 108.311 88.0566 98.1838 98.1838C88.0566 108.311 74.3215 114 60.0001 114C45.6782 114 31.9432 108.311 21.8162 98.1838C11.6893 88.0566 6 74.3215 6 60C6 45.6783 11.6893 31.9432 21.8162 21.8162C31.9432 11.6893 45.6782 6 60.0001 6C74.3215 6 88.0566 11.6893 98.1838 21.8162C108.311 31.9432 114 45.6783 114 60ZM51.8327 40.3778C51.3277 40.0184 50.734 39.805 50.1159 39.7607C49.4983 39.7164 48.8801 39.8431 48.3293 40.1268C47.7785 40.4106 47.3164 40.8404 46.9937 41.3692C46.6712 41.898 46.5003 42.5055 46.5 43.125V76.875C46.5003 77.4944 46.6712 78.1017 46.9937 78.6307C47.3164 79.1596 47.7785 79.5896 48.3293 79.8733C48.8801 80.1567 49.4983 80.2836 50.1159 80.2394C50.734 80.1948 51.3277 79.9814 51.8327 79.6222L75.4575 62.7472C75.8951 62.4352 76.2517 62.0228 76.4978 61.5449C76.7438 61.0673 76.872 60.5375 76.872 60C76.872 59.4625 76.7438 58.9327 76.4978 58.4547C76.2517 57.9772 75.8951 57.5649 75.4575 57.2528L51.8327 40.3778Z" fill="white"/>
<defs>
<linearGradient id="paint0_linear_0_1" x1="-14.6667" y1="-9.33333" x2="-29.3333" y2="90.6667" gradientUnits="userSpaceOnUse">
<stop stop-color="#00D3FF"/>
<stop offset="1" stop-color="#1A49FF"/>
</linearGradient>
</defs>
</svg>
