<svg width="14" height="15" viewBox="0 0 14 15" fill="none" xmlns="http://www.w3.org/2000/svg">
<path d="M11.7086 2.79085C10.3502 1.43251 8.42522 0.64918 6.30855 0.865846C3.25022 1.17418 0.733555 3.65751 0.391888 6.71585C-0.0664454 10.7575 3.05855 14.1658 7.00022 14.1658C9.65855 14.1658 11.9419 12.6075 13.0086 10.3658C13.2752 9.80751 12.8752 9.16585 12.2586 9.16585C11.9502 9.16585 11.6586 9.33251 11.5252 9.60751C10.5836 11.6325 8.32522 12.9158 5.85855 12.3658C4.00855 11.9575 2.51689 10.4492 2.12522 8.59918C1.42522 5.36585 3.88355 2.49918 7.00022 2.49918C8.38355 2.49918 9.61689 3.07418 10.5169 3.98251L9.25855 5.24085C8.73355 5.76585 9.10022 6.66585 9.84189 6.66585H12.8336C13.2919 6.66585 13.6669 6.29085 13.6669 5.83251V2.84085C13.6669 2.09918 12.7669 1.72418 12.2419 2.24918L11.7086 2.79085Z" fill="#175BFF"/>
</svg>
