<svg width="102" height="110" viewBox="0 0 102 110" fill="none" xmlns="http://www.w3.org/2000/svg">
<path d="M46 5C46 2.23858 48.2386 0 51 0C53.7614 0 56 2.23858 56 5C56 7.76142 53.7614 10 51 10C48.2386 10 46 7.76142 46 5Z" fill="url(#paint0_linear_0_1)"/>
<path opacity="0.5" d="M46 105C46 102.239 48.2386 100 51 100C53.7614 100 56 102.239 56 105C56 107.761 53.7614 110 51 110C48.2386 110 46 107.761 46 105Z" fill="url(#paint1_linear_0_1)"/>
<path opacity="0.9" d="M17 15C17 12.2386 19.2386 10 22 10C24.7614 10 27 12.2386 27 15C27 17.7614 24.7614 20 22 20C19.2386 20 17 17.7614 17 15Z" fill="url(#paint2_linear_0_1)"/>
<path opacity="0.1" d="M75 15C75 12.2386 77.2386 10 80 10C82.7614 10 85 12.2386 85 15C85 17.7614 82.7614 20 80 20C77.2386 20 75 17.7614 75 15Z" fill="url(#paint3_linear_0_1)"/>
<path opacity="0.6" d="M17 96C17 93.2386 19.2386 91 22 91C24.7614 91 27 93.2386 27 96C27 98.7614 24.7614 101 22 101C19.2386 101 17 98.7614 17 96Z" fill="url(#paint4_linear_0_1)"/>
<path opacity="0.4" d="M75 96C75 93.2386 77.2386 91 80 91C82.7614 91 85 93.2386 85 96C85 98.7614 82.7614 101 80 101C77.2386 101 75 98.7614 75 96Z" fill="url(#paint5_linear_0_1)"/>
<path opacity="0.8" d="M0 38C0 35.2386 2.23858 33 5 33C7.76142 33 10 35.2386 10 38C10 40.7614 7.76142 43 5 43C2.23858 43 0 40.7614 0 38Z" fill="url(#paint6_linear_0_1)"/>
<path opacity="0.7" d="M0 71C0 68.2386 2.23858 66 5 66C7.76142 66 10 68.2386 10 71C10 73.7614 7.76142 76 5 76C2.23858 76 0 73.7614 0 71Z" fill="url(#paint7_linear_0_1)"/>
<path opacity="0.3" d="M92 71C92 68.2386 94.2386 66 97 66C99.7614 66 102 68.2386 102 71C102 73.7614 99.7614 76 97 76C94.2386 76 92 73.7614 92 71Z" fill="url(#paint8_linear_0_1)"/>
<path opacity="0.2" d="M92 38C92 35.2386 94.2386 33 97 33C99.7614 33 102 35.2386 102 38C102 40.7614 99.7614 43 97 43C94.2386 43 92 40.7614 92 38Z" fill="url(#paint9_linear_0_1)"/>
<defs>
<linearGradient id="paint0_linear_0_1" x1="58.3324" y1="-3.15325" x2="47.702" y2="3.48654" gradientUnits="userSpaceOnUse">
<stop stop-color="#00D3FF"/>
<stop offset="1" stop-color="#1A49FF"/>
</linearGradient>
<linearGradient id="paint1_linear_0_1" x1="58.3324" y1="96.8467" x2="47.702" y2="103.487" gradientUnits="userSpaceOnUse">
<stop stop-color="#00D3FF"/>
<stop offset="1" stop-color="#1A49FF"/>
</linearGradient>
<linearGradient id="paint2_linear_0_1" x1="29.3324" y1="6.84675" x2="18.702" y2="13.4865" gradientUnits="userSpaceOnUse">
<stop stop-color="#00D3FF"/>
<stop offset="1" stop-color="#1A49FF"/>
</linearGradient>
<linearGradient id="paint3_linear_0_1" x1="87.3324" y1="6.84675" x2="76.702" y2="13.4865" gradientUnits="userSpaceOnUse">
<stop stop-color="#00D3FF"/>
<stop offset="1" stop-color="#1A49FF"/>
</linearGradient>
<linearGradient id="paint4_linear_0_1" x1="29.3324" y1="87.8467" x2="18.702" y2="94.4865" gradientUnits="userSpaceOnUse">
<stop stop-color="#00D3FF"/>
<stop offset="1" stop-color="#1A49FF"/>
</linearGradient>
<linearGradient id="paint5_linear_0_1" x1="87.3324" y1="87.8467" x2="76.702" y2="94.4865" gradientUnits="userSpaceOnUse">
<stop stop-color="#00D3FF"/>
<stop offset="1" stop-color="#1A49FF"/>
</linearGradient>
<linearGradient id="paint6_linear_0_1" x1="12.3324" y1="29.8467" x2="1.702" y2="36.4865" gradientUnits="userSpaceOnUse">
<stop stop-color="#00D3FF"/>
<stop offset="1" stop-color="#1A49FF"/>
</linearGradient>
<linearGradient id="paint7_linear_0_1" x1="12.3324" y1="62.8467" x2="1.702" y2="69.4865" gradientUnits="userSpaceOnUse">
<stop stop-color="#00D3FF"/>
<stop offset="1" stop-color="#1A49FF"/>
</linearGradient>
<linearGradient id="paint8_linear_0_1" x1="104.332" y1="62.8467" x2="93.702" y2="69.4865" gradientUnits="userSpaceOnUse">
<stop stop-color="#00D3FF"/>
<stop offset="1" stop-color="#1A49FF"/>
</linearGradient>
<linearGradient id="paint9_linear_0_1" x1="104.332" y1="29.8467" x2="93.702" y2="36.4865" gradientUnits="userSpaceOnUse">
<stop stop-color="#00D3FF"/>
<stop offset="1" stop-color="#1A49FF"/>
</linearGradient>
</defs>
</svg>
