<svg width="19" height="19" viewBox="0 0 19 19" fill="none" xmlns="http://www.w3.org/2000/svg">
<path d="M13.1777 15.832C13.8681 15.832 14.4277 15.2723 14.4277 14.582C14.4277 13.8916 13.8681 13.332 13.1777 13.332C12.4874 13.332 11.9277 13.8916 11.9277 14.582C11.9277 15.2723 12.4874 15.832 13.1777 15.832Z" fill="#175BFF"/>
<path d="M18.0384 14.2563C17.6522 13.2725 16.9858 12.4236 16.1218 11.8149C15.2578 11.2062 14.2341 10.8644 13.1777 10.832C12.1213 10.8644 11.0977 11.2062 10.2337 11.8149C9.3697 12.4236 8.70328 13.2725 8.31711 14.2563L8.17773 14.582L8.31711 14.9076C8.70328 15.8914 9.3697 16.7403 10.2337 17.349C11.0977 17.9577 12.1213 18.2995 13.1777 18.332C14.2341 18.2995 15.2578 17.9577 16.1218 17.349C16.9858 16.7403 17.6522 15.8914 18.0384 14.9076L18.1777 14.582L18.0384 14.2563ZM13.1777 17.082C12.6833 17.082 12.1999 16.9353 11.7888 16.6606C11.3777 16.3859 11.0573 15.9955 10.868 15.5387C10.6788 15.0818 10.6293 14.5792 10.7258 14.0942C10.8222 13.6093 11.0603 13.1638 11.41 12.8142C11.7596 12.4646 12.2051 12.2265 12.69 12.13C13.175 12.0335 13.6776 12.083 14.1344 12.2723C14.5913 12.4615 14.9817 12.7819 15.2564 13.193C15.5311 13.6042 15.6777 14.0875 15.6777 14.582C15.6769 15.2447 15.4132 15.8801 14.9446 16.3488C14.4759 16.8175 13.8405 17.0811 13.1777 17.082Z" fill="#175BFF"/>
<path d="M13.0952 0H1.30952C0.96254 0.00104 0.63005 0.13934 0.3847 0.3847C0.13934 0.63006 0.00104 0.96254 0 1.30953V17.0238C0.00104 17.3708 0.13934 17.7033 0.3847 17.9487C0.63005 18.194 0.96254 18.3323 1.30952 18.3334H6.54762V17.0238H1.30952V1.30953H13.0952V8.51191H14.4048V1.30953C14.4037 0.96254 14.2654 0.63006 14.0201 0.3847C13.7747 0.13934 13.4422 0.00104 13.0952 0Z" fill="#175BFF"/>
<path d="M6.54725 10.4714H3.27344V11.7809H6.54725V10.4714Z" fill="#175BFF"/>
<path d="M11.1306 7.19775H3.27344V8.50728H11.1306V7.19775Z" fill="#175BFF"/>
<path d="M11.1306 3.92383H3.27344V5.23336H11.1306V3.92383Z" fill="#175BFF"/>
</svg>
