<svg width="20" height="20" viewBox="0 0 20 20" fill="none" xmlns="http://www.w3.org/2000/svg">
<path d="M18.6667 20L11.472 12.806C10.9164 13.2687 10.2684 13.6342 9.528 13.9027C8.78711 14.1716 8.00933 14.306 7.19467 14.306C5.176 14.306 3.47222 13.6116 2.08333 12.2227C0.694445 10.8338 0 9.14844 0 7.16667C0 5.18533 0.694445 3.49556 2.08333 2.09733C3.47222 0.699111 5.16667 0 7.16667 0C9.148 0 10.8331 0.699111 12.222 2.09733C13.6109 3.49556 14.3053 5.18533 14.3053 7.16667C14.3053 7.96311 14.1758 8.72711 13.9167 9.45867C13.6576 10.1902 13.278 10.8707 12.778 11.5L20 18.6667L18.6667 20ZM7.16667 12.4447C8.62978 12.4447 9.87511 11.9307 10.9027 10.9027C11.9307 9.87511 12.4447 8.62978 12.4447 7.16667C12.4447 5.704 11.9307 4.454 10.9027 3.41667C9.87511 2.37978 8.62978 1.86133 7.16667 1.86133C5.68533 1.86133 4.43067 2.37978 3.40267 3.41667C2.37511 4.454 1.86133 5.704 1.86133 7.16667C1.86133 8.62978 2.37511 9.87511 3.40267 10.9027C4.43067 11.9307 5.68533 12.4447 7.16667 12.4447ZM4.36133 8.056V6.22267H9.91667V8.056H4.36133Z" fill="black"/>
</svg>
